<svg xmlns="http://www.w3.org/2000/svg" width="24" height="24" viewBox="0 0 24 24" fill="black">
  <path d="M12.031 6.172c-3.181 0-5.767 2.586-5.768 5.766-.001 1.298.38 2.27 1.019 3.287l-.582 2.128 2.182-.573c.978.58 1.911.928 3.145.929 3.178 0 5.767-2.587 5.768-5.766 0-3.18-2.587-5.771-5.764-5.771zm3.392 8.244c-.144.405-.837.774-1.17.824-.312.045-.63.078-1.746-.37-1.428-.573-2.345-2.017-2.414-2.11-.07-.093-.564-.75-.564-1.442 0-.693.363-1.034.492-1.178.13-.144.282-.18.375-.18.093 0 .187 0 .269.005.087.005.202-.032.316.243.114.274.394.96.429 1.03.035.07.058.15.011.243-.046.093-.07.15-.14.232-.07.083-.146.185-.21.247-.07.072-.144.15-.062.29.082.14.364.6.78 1.01.536.52 1.037.64 1.233.725.196.085.31.07.426-.06.116-.13.504-.585.64-.787.135-.202.27-.17.455-.1.186.07 1.174.553 1.376.655.202.103.336.15.385.232.05.082.05.474-.094.879zM12 0C5.373 0 0 5.373 0 12s5.373 12 12 12 12-5.373 12-12S18.627 0 12 0zm0 22C6.477 22 2 17.523 2 12S6.477 2 12 2s10 4.477 10 10-4.477 10-10 10z"/>
</svg>
