<svg xmlns="http://www.w3.org/2000/svg" width="24" height="24" viewBox="0 0 24 24" fill="none" stroke="black" stroke-width="1.5" stroke-linecap="round" stroke-linejoin="round">
  <path d="M21 11.5a8.38 8.38 0 0 1-.9 3.8 8.5 8.5 0 1 1-7.6-11.6c.9 0 1.7.1 2.5.4"></path>
  <path d="M3 21l1.6-4.9C3.6 14.5 3 12.8 3 11c0-5 4-9 9-9s9 4 9 9-4 9-9 9c-1.8 0-3.5-.6-4.9-1.6L3 21z"></path>
  <path d="M9 8c-.5 0-1 .5-1 1 0 .6.2 1.3.6 1.8 1.4 1.8 3.2 3.2 5 4.6.5.4 1.2.6 1.8.6 1.2 0 1.6-1.2 1.6-1.2s-1.4-1.4-1.4-1.4-.6-.4-1-.2c-.4.2-.8.8-.8.8s-1.4-1-2.4-2-2-2.4-2-2.4.6-.4.8-.8c.2-.4-.2-1-.2-1s-1.4-1.4-1.4-1.4z"></path>
</svg>
